<svg version="1.1" xmlns="http://www.w3.org/2000/svg" style="width: 200px; height: 200px; " viewbox="0 0 170 170">
                        <path d="M0,0 L6,1 L32,16 L56,30 L59,32 L59,98 L46,106 L40,109 L39,43 L11,27 L3,22 L-2,24 L-25,37 L-35,43 L-36,109 L-51,101 L-55,98 L-55,32 L-38,22 L-14,8 Z " fill="#1b645b" transform="translate(83,20)"/>
                        <path d="M0,0 L5,2 L19,10 L20,11 L20,33 L11,39 L2,44 L-3,42 L-17,34 L-18,33 L-18,11 L-5,3 Z " fill="#16554e" transform="translate(84,63)"/>
                        <path d="M0,0 L1,0 L1,66 L-12,74 L-18,77 L-18,11 L-5,3 Z " fill="#154f4a" transform="translate(141,52)"/>
                        <path d="M0,0 L11,6 L19,11 L19,77 L4,69 L0,66 Z " fill="#144c47" transform="translate(28,52)"/>
                        <path d="M0,0 L12,6 L17,9 L23,8 L37,0 L38,0 L38,22 L25,30 L20,33 L15,31 L0,22 Z " fill="#194e49" transform="translate(66,118)"/>
                        <path d="M0,0 L1,0 L1,22 L-12,30 L-18,32 L-18,11 L-9,5 Z " fill="#133d3a" transform="translate(103,118)"/>
                        <path d="M0,0 L1,0 L1,22 L-8,28 L-18,33 L-18,11 L-5,3 Z " fill="#123a37" transform="translate(103,74)"/>
                        <path d="M0,0 L5,2 L19,10 L18,13 L2,22 L-4,20 L-17,12 L-17,10 Z " fill="#1a6058" transform="translate(84,63)"/>
                        <path d="M0,0 L2,1 L1,21 L-3,19 L-2,16 L-2,2 Z " fill="#1a5c54" transform="translate(84,128)"/>
                        <path d="M0,0 L3,0 L3,3 L10,2 L11,9 L-2,2 Z " fill="#17664f" transform="translate(36,120)"/>
                        <path d="M0,0 L6,1 L3,4 L-1,6 L-2,1 Z " fill="#145945" transform="translate(126,122)"/>
                        <path d="M0,0 L1,0 L1,17 L-3,18 L-1,15 L-1,2 Z " fill="#123833" transform="translate(103,123)"/>
                        <path d="M0,0 L1,0 L1,5 L-1,6 L-1,4 L-5,6 L-6,3 Z " fill="#17433a" transform="translate(103,118)"/>
                        <path d="M0,0 L3,2 L0,5 L-5,4 L-2,1 Z " fill="#1a6058" transform="translate(59,34)"/>
                        <path d="M0,0 L3,0 L3,3 L6,3 L5,6 L-2,2 Z " fill="#165850" transform="translate(36,120)"/>
                      </svg>